<?xml version="1.0" encoding="utf-8"?>
<!-- Generator: Adobe Illustrator 16.0.0, SVG Export Plug-In . SVG Version: 6.00 Build 0)  -->
<!DOCTYPE svg PUBLIC "-//W3C//DTD SVG 1.1//EN" "http://www.w3.org/Graphics/SVG/1.1/DTD/svg11.dtd">
<svg version="1.1" id="Layer_1" xmlns="http://www.w3.org/2000/svg" xmlns:xlink="http://www.w3.org/1999/xlink" x="0px" y="0px"
	 width="1024px" height="1098.727px" viewBox="0 0 1024 1098.727" enable-background="new 0 0 1024 1098.727" xml:space="preserve">
<rect fill="#FFFFFF" width="1024.002" height="1024.001"/>
<path opacity="0.5" fill="#808285" d="M995.906,918.279c0,2.762-2.238,5-5,5h-948c-2.761,0-5-2.238-5-5v-26c0-2.762,2.239-5,5-5h948
	c2.762,0,5,2.238,5,5V918.279z"/>
<line fill="none" stroke="#231F20" stroke-width="2" stroke-miterlimit="10" x1="526.917" y1="158.757" x2="247.9" y2="312.789"/>
<line fill="none" stroke="#231F20" stroke-width="2" stroke-miterlimit="10" x1="526.917" y1="158.757" x2="699.48" y2="316.748"/>
<g>
	<rect x="0.001" y="1024.002" fill="#132028" width="1024.003" height="74.725"/>
	<g>
		<g>
			<path fill="#FFFFFF" d="M377.82,1052.801h2.983c2.346,0,4.28,0.616,5.799,1.853c1.53,1.223,2.293,2.983,2.293,5.278
				c0,2.363-0.756,4.165-2.277,5.414c-1.513,1.252-3.473,1.875-5.87,1.875h-2.928V1052.801z M379.62,1065.582h0.627
				c0.936,0,1.814-0.098,2.646-0.285c0.824-0.182,1.552-0.498,2.17-0.938c0.621-0.437,1.115-1.013,1.481-1.718
				c0.372-0.71,0.555-1.588,0.555-2.633c0-1.029-0.183-1.908-0.545-2.649c-0.362-0.731-0.87-1.303-1.521-1.716
				c-0.651-0.414-1.366-0.722-2.154-0.916c-0.783-0.188-1.656-0.291-2.631-0.291h-0.627V1065.582z"/>
			<path fill="#FFFFFF" d="M391.536,1063.032c0.024,0.798,0.283,1.497,0.767,2.088c0.499,0.584,1.139,0.875,1.931,0.875
				c0.627,0,1.14-0.137,1.543-0.427c0.401-0.289,0.784-0.727,1.139-1.313l1.452,0.825c-0.419,0.766-0.995,1.362-1.73,1.797
				c-0.731,0.432-1.542,0.655-2.421,0.655c-1.336,0-2.411-0.449-3.211-1.341c-0.794-0.909-1.187-2.026-1.187-3.367
				c0-1.41,0.374-2.58,1.127-3.488c0.741-0.891,1.815-1.336,3.234-1.336c1.377,0,2.415,0.445,3.12,1.336
				c0.713,0.893,1.069,2.033,1.069,3.431v0.266H391.536z M396.648,1061.73c-0.105-0.689-0.362-1.239-0.794-1.635
				c-0.431-0.399-0.986-0.611-1.675-0.611c-0.332,0-0.641,0.059-0.927,0.17c-0.291,0.104-0.542,0.268-0.771,0.464
				c-0.216,0.21-0.403,0.455-0.55,0.725c-0.148,0.272-0.246,0.575-0.295,0.888H396.648z"/>
			<path fill="#FFFFFF" d="M403.438,1060.322c-0.26-0.529-0.638-0.787-1.145-0.787c-0.241,0-0.46,0.081-0.654,0.255
				c-0.192,0.17-0.285,0.386-0.285,0.624c0,0.23,0.072,0.422,0.219,0.577c0.147,0.162,0.347,0.313,0.599,0.456
				c0.168,0.073,0.295,0.137,0.386,0.176c0.086,0.047,0.236,0.113,0.44,0.202c0.102,0.049,0.193,0.097,0.271,0.116
				c0.072,0.027,0.13,0.044,0.168,0.078c0.637,0.29,1.142,0.634,1.512,1.013c0.372,0.385,0.554,0.893,0.554,1.535
				c0,0.843-0.305,1.548-0.918,2.118c-0.598,0.567-1.316,0.847-2.164,0.847c-0.341,0-0.675-0.05-0.991-0.146
				c-0.322-0.094-0.62-0.229-0.892-0.403c-0.275-0.179-0.514-0.38-0.73-0.629c-0.208-0.25-0.373-0.529-0.481-0.839l1.473-0.662
				c0.416,0.763,0.96,1.143,1.621,1.143c0.272,0,0.52-0.07,0.75-0.214c0.228-0.146,0.395-0.334,0.506-0.562
				c0.108-0.223,0.13-0.46,0.066-0.722c-0.063-0.264-0.265-0.516-0.594-0.739l-1.685-0.9c-0.295-0.152-0.545-0.298-0.764-0.454
				c-0.216-0.159-0.397-0.324-0.535-0.493c-0.141-0.175-0.247-0.363-0.314-0.573c-0.068-0.209-0.106-0.454-0.106-0.74
				c0-0.726,0.252-1.33,0.768-1.833c0.505-0.513,1.133-0.765,1.873-0.765c1.12,0,1.938,0.524,2.449,1.568L403.438,1060.322z"/>
			<path fill="#FFFFFF" d="M409.62,1054.173c0,0.321-0.115,0.593-0.346,0.829c-0.229,0.227-0.51,0.33-0.842,0.33
				c-0.333,0-0.61-0.104-0.841-0.33c-0.229-0.236-0.344-0.508-0.344-0.829c0-0.331,0.116-0.611,0.344-0.856
				c0.23-0.238,0.507-0.346,0.841-0.346c0.332,0,0.613,0.107,0.842,0.346C409.505,1053.562,409.62,1053.842,409.62,1054.173z
				 M409.29,1067.221h-1.724v-8.956h1.724V1067.221z"/>
			<path fill="#FFFFFF" d="M420.432,1067.054c0,1.682-0.324,2.982-0.96,3.917c-0.633,0.922-1.775,1.378-3.404,1.378
				c-1.261,0-2.296-0.363-3.099-1.092c-0.79-0.727-1.204-1.713-1.225-2.962h1.717c0,0.8,0.252,1.418,0.74,1.863
				c0.489,0.444,1.137,0.661,1.945,0.661c0.979,0,1.652-0.289,2.017-0.86c0.36-0.578,0.543-1.39,0.543-2.427v-1.708h-0.036
				c-0.359,0.538-0.8,0.956-1.33,1.253c-0.53,0.305-1.103,0.455-1.712,0.455c-1.329,0-2.373-0.467-3.14-1.398
				c-0.763-0.936-1.146-2.085-1.146-3.445c0-1.294,0.388-2.39,1.165-3.294c0.783-0.928,1.793-1.395,3.042-1.395
				c1.317,0,2.356,0.603,3.122,1.801h0.036v-1.536h1.726V1067.054z M415.894,1065.995c0.905,0,1.613-0.307,2.123-0.938
				c0.525-0.631,0.785-1.408,0.785-2.313c0-0.889-0.26-1.653-0.785-2.279c-0.51-0.621-1.218-0.93-2.123-0.93
				c-0.854,0-1.542,0.311-2.067,0.953c-0.506,0.626-0.765,1.373-0.765,2.256c0,0.904,0.259,1.678,0.765,2.295
				C414.353,1065.678,415.04,1065.995,415.894,1065.995z"/>
			<path fill="#FFFFFF" d="M424.395,1059.47h0.03c0.258-0.468,0.631-0.836,1.115-1.086c0.48-0.257,1.014-0.384,1.586-0.384
				c0.586,0,1.083,0.092,1.493,0.265c0.411,0.181,0.736,0.437,0.987,0.769c0.248,0.332,0.426,0.74,0.531,1.211
				c0.114,0.484,0.163,1.025,0.163,1.641v5.336h-1.717v-5.123c0-0.886-0.131-1.524-0.385-1.936
				c-0.255-0.423-0.784-0.627-1.586-0.627c-0.298,0-0.544,0.025-0.75,0.081c-0.205,0.059-0.379,0.143-0.533,0.246
				c-0.154,0.111-0.28,0.242-0.385,0.373c-0.098,0.14-0.197,0.296-0.282,0.464c-0.039,0.085-0.079,0.2-0.107,0.342
				c-0.033,0.136-0.059,0.283-0.084,0.435c-0.025,0.144-0.05,0.288-0.061,0.436c-0.009,0.152-0.014,0.263-0.014,0.354v0.846v4.109
				h-1.726v-8.956h1.726V1059.47z"/>
			<path fill="#FFFFFF" d="M438.07,1050.614h1.722v9.145h0.037c0.793-1.171,1.831-1.759,3.121-1.759
				c1.252,0,2.263,0.467,3.043,1.395c0.777,0.904,1.167,2,1.167,3.294c0,1.36-0.39,2.51-1.149,3.445
				c-0.77,0.932-1.81,1.398-3.136,1.398c-0.611,0-1.185-0.15-1.717-0.455c-0.528-0.297-0.972-0.715-1.33-1.253h-0.037v1.396h-1.722
				V1050.614z M442.525,1065.995c0.911,0,1.617-0.307,2.13-0.938c0.522-0.631,0.778-1.408,0.778-2.313
				c0-0.889-0.256-1.653-0.778-2.279c-0.513-0.621-1.219-0.93-2.13-0.93c-0.855,0-1.542,0.311-2.065,0.953
				c-0.511,0.626-0.763,1.373-0.763,2.256c0,0.904,0.252,1.678,0.763,2.295C440.983,1065.678,441.67,1065.995,442.525,1065.995z"/>
			<path fill="#FFFFFF" d="M447.408,1058.265h2.009l3.021,5.688l2.81-5.688h1.938l-7.252,14.084h-1.953l3.521-6.66L447.408,1058.265
				z"/>
			<path fill="#FFFFFF" d="M465.871,1063.602l-1.646,3.619h-1.934l6.891-15.038l6.883,15.038h-1.929l-1.641-3.619H465.871z
				 M469.182,1056.128l-2.57,5.833h5.13L469.182,1056.128z"/>
			<path fill="#FFFFFF" d="M478.882,1067.221h-1.72v-16.606h1.72V1067.221z"/>
			<path fill="#FFFFFF" d="M483.13,1067.221h-1.723v-16.606h1.723V1067.221z"/>
			<path fill="#FFFFFF" d="M489.672,1060.375v1.433h-4.189v-1.433H489.672z"/>
			<path fill="#FFFFFF" d="M496.362,1052.357c-0.532-0.243-0.913-0.364-1.142-0.364c-0.374,0-0.638,0.112-0.801,0.352
				c-0.169,0.234-0.283,0.522-0.347,0.872c-0.038,0.252-0.057,0.455-0.071,0.603c-0.003,0.15-0.003,0.348-0.003,0.607v3.838h2.364
				v1.607h-2.364v7.349h-1.728v-7.349h-0.781v-1.607h0.781v-4.356c0-2.349,0.965-3.526,2.896-3.526c0.419,0,0.819,0.084,1.196,0.232
				V1052.357z"/>
			<path fill="#FFFFFF" d="M499.023,1059.719h0.058c0.219-0.531,0.531-0.954,0.959-1.259c0.425-0.305,0.92-0.46,1.493-0.46
				c0.477,0,0.941,0.145,1.423,0.441l-0.788,1.566c-0.282-0.249-0.635-0.361-1.052-0.361c-0.888,0-1.469,0.358-1.763,1.071
				c-0.128,0.332-0.218,0.66-0.259,0.984c-0.041,0.321-0.07,0.702-0.07,1.122v4.396h-1.715v-8.956h1.715V1059.719z"/>
			<path fill="#FFFFFF" d="M504.944,1063.032c0.02,0.798,0.279,1.497,0.767,2.088c0.494,0.584,1.133,0.875,1.928,0.875
				c0.617,0,1.141-0.137,1.54-0.427c0.401-0.289,0.783-0.727,1.135-1.313l1.453,0.825c-0.416,0.766-0.992,1.362-1.726,1.797
				c-0.734,0.432-1.544,0.655-2.422,0.655c-1.334,0-2.41-0.449-3.208-1.341c-0.794-0.909-1.189-2.026-1.189-3.367
				c0-1.41,0.376-2.58,1.125-3.488c0.74-0.891,1.815-1.336,3.233-1.336c1.378,0,2.42,0.445,3.126,1.336
				c0.707,0.893,1.061,2.033,1.061,3.431v0.266H504.944z M510.051,1061.73c-0.104-0.689-0.369-1.239-0.794-1.635
				c-0.427-0.399-0.983-0.611-1.677-0.611c-0.332,0-0.638,0.059-0.928,0.17c-0.283,0.104-0.542,0.268-0.76,0.464
				c-0.228,0.21-0.412,0.455-0.565,0.725c-0.142,0.272-0.241,0.575-0.288,0.888H510.051z"/>
			<path fill="#FFFFFF" d="M514.285,1063.032c0.021,0.798,0.275,1.497,0.76,2.088c0.493,0.584,1.143,0.875,1.931,0.875
				c0.627,0,1.144-0.137,1.54-0.427c0.404-0.289,0.779-0.727,1.141-1.313l1.45,0.825c-0.412,0.766-0.986,1.362-1.729,1.797
				c-0.737,0.432-1.54,0.655-2.421,0.655c-1.344,0-2.411-0.449-3.22-1.341c-0.785-0.909-1.179-2.026-1.179-3.367
				c0-1.41,0.372-2.58,1.131-3.488c0.735-0.891,1.817-1.336,3.232-1.336c1.37,0,2.414,0.445,3.112,1.336
				c0.721,0.893,1.072,2.033,1.072,3.431v0.266H514.285z M519.39,1061.73c-0.099-0.689-0.37-1.239-0.802-1.635
				c-0.424-0.399-0.979-0.611-1.666-0.611c-0.338,0-0.643,0.059-0.933,0.17c-0.286,0.104-0.537,0.268-0.761,0.464
				c-0.227,0.21-0.415,0.455-0.555,0.725c-0.148,0.272-0.249,0.575-0.301,0.888H519.39z"/>
			<path fill="#FFFFFF" d="M526.68,1060.375v1.433h-4.195v-1.433H526.68z"/>
			<path fill="#FFFFFF" d="M535.612,1065.824h-0.04c-0.355,0.538-0.8,0.956-1.328,1.253c-0.531,0.305-1.104,0.455-1.711,0.455
				c-1.329,0-2.374-0.467-3.137-1.398c-0.767-0.936-1.157-2.085-1.157-3.445c0-1.294,0.393-2.39,1.173-3.294
				c0.779-0.928,1.792-1.395,3.042-1.395c1.288,0,2.327,0.588,3.118,1.759h0.04v-9.145h1.718v16.606h-1.718V1065.824z
				 M532.799,1065.995c0.903,0,1.618-0.307,2.122-0.938c0.523-0.631,0.789-1.408,0.789-2.313c0-0.889-0.266-1.653-0.789-2.279
				c-0.504-0.621-1.219-0.93-2.122-0.93c-0.855,0-1.545,0.311-2.064,0.953c-0.511,0.626-0.767,1.373-0.767,2.256
				c0,0.904,0.256,1.678,0.767,2.295C531.254,1065.678,531.943,1065.995,532.799,1065.995z"/>
			<path fill="#FFFFFF" d="M540.146,1059.376c0.933-0.916,2.068-1.376,3.411-1.376c1.337,0,2.464,0.46,3.375,1.376
				c0.937,0.913,1.399,2.057,1.399,3.391c0,1.335-0.463,2.463-1.399,3.393c-0.911,0.912-2.038,1.373-3.375,1.373
				c-1.343,0-2.479-0.461-3.411-1.373c-0.919-0.93-1.38-2.058-1.38-3.393C538.767,1061.433,539.228,1060.289,540.146,1059.376z
				 M540.488,1062.767c0,0.824,0.31,1.56,0.907,2.191c0.583,0.624,1.31,0.925,2.162,0.925c0.835,0,1.562-0.301,2.156-0.925
				c0.603-0.632,0.898-1.367,0.898-2.191c0-0.843-0.296-1.583-0.898-2.202c-0.595-0.613-1.321-0.918-2.156-0.918
				c-0.853,0-1.579,0.305-2.162,0.918C540.798,1061.184,540.488,1061.924,540.488,1062.767z"/>
			<path fill="#FFFFFF" d="M552.97,1063.975l2.632-6.203l2.625,6.203l2.607-5.71h1.945l-4.553,9.268l-2.625-5.988l-2.632,5.988
				l-4.556-9.268h1.95L552.97,1063.975z"/>
			<path fill="#FFFFFF" d="M565.368,1059.47h0.036c0.254-0.468,0.622-0.836,1.107-1.086c0.487-0.257,1.016-0.384,1.587-0.384
				c0.589,0,1.092,0.092,1.496,0.265c0.407,0.181,0.734,0.437,0.987,0.769c0.246,0.332,0.424,0.74,0.526,1.211
				c0.112,0.484,0.165,1.025,0.165,1.641v5.336h-1.72v-5.123c0-0.886-0.118-1.524-0.381-1.936c-0.256-0.423-0.781-0.627-1.594-0.627
				c-0.287,0-0.536,0.025-0.744,0.081c-0.198,0.059-0.38,0.143-0.536,0.246c-0.15,0.111-0.278,0.242-0.38,0.373
				c-0.105,0.14-0.2,0.296-0.284,0.464c-0.037,0.085-0.076,0.2-0.106,0.342c-0.035,0.136-0.066,0.283-0.086,0.435
				c-0.028,0.144-0.041,0.288-0.063,0.436c-0.003,0.152-0.011,0.263-0.011,0.354v0.846v4.109h-1.723v-8.956h1.723V1059.47z"/>
			<path fill="#FFFFFF" d="M575.448,1067.221h-1.724v-16.606h1.724V1067.221z"/>
			<path fill="#FFFFFF" d="M578.471,1059.376c0.923-0.916,2.065-1.376,3.408-1.376c1.338,0,2.461,0.46,3.389,1.376
				c0.928,0.913,1.387,2.057,1.387,3.391c0,1.335-0.459,2.463-1.387,3.393c-0.928,0.912-2.051,1.373-3.389,1.373
				c-1.343,0-2.485-0.461-3.408-1.373c-0.924-0.93-1.38-2.058-1.38-3.393C577.091,1061.433,577.547,1060.289,578.471,1059.376z
				 M578.816,1062.767c0,0.824,0.301,1.56,0.896,2.191c0.587,0.624,1.31,0.925,2.166,0.925c0.836,0,1.561-0.301,2.165-0.925
				c0.594-0.632,0.893-1.367,0.893-2.191c0-0.843-0.299-1.583-0.893-2.202c-0.604-0.613-1.329-0.918-2.165-0.918
				c-0.856,0-1.579,0.305-2.166,0.918C579.117,1061.184,578.816,1061.924,578.816,1062.767z"/>
			<path fill="#FFFFFF" d="M596.63,1067.221h-1.726v-1.396h-0.034c-0.767,1.133-1.784,1.708-3.046,1.708
				c-1.313,0-2.36-0.467-3.138-1.398c-0.765-0.936-1.148-2.085-1.148-3.445c0-1.294,0.387-2.39,1.169-3.294
				c0.777-0.928,1.799-1.395,3.057-1.395c1.281,0,2.314,0.588,3.106,1.759h0.034v-1.494h1.726V1067.221z M592.094,1065.995
				c0.912,0,1.609-0.307,2.123-0.938c0.522-0.631,0.784-1.408,0.784-2.313c0-0.889-0.262-1.653-0.784-2.279
				c-0.514-0.621-1.211-0.93-2.123-0.93c-0.854,0-1.545,0.311-2.063,0.953c-0.513,0.626-0.772,1.373-0.772,2.256
				c0,0.904,0.26,1.678,0.772,2.295C590.549,1065.678,591.24,1065.995,592.094,1065.995z"/>
			<path fill="#FFFFFF" d="M605.541,1065.824h-0.032c-0.36,0.538-0.811,0.956-1.331,1.253c-0.53,0.305-1.101,0.455-1.713,0.455
				c-1.33,0-2.377-0.467-3.143-1.398c-0.763-0.936-1.147-2.085-1.147-3.445c0-1.294,0.396-2.39,1.171-3.294
				c0.776-0.928,1.789-1.395,3.045-1.395c1.287,0,2.318,0.588,3.118,1.759h0.032v-9.145h1.726v16.606h-1.726V1065.824z
				 M602.731,1065.995c0.903,0,1.608-0.307,2.118-0.938c0.523-0.631,0.786-1.408,0.786-2.313c0-0.889-0.263-1.653-0.786-2.279
				c-0.51-0.621-1.215-0.93-2.118-0.93c-0.856,0-1.546,0.311-2.065,0.953c-0.509,0.626-0.768,1.373-0.768,2.256
				c0,0.904,0.259,1.678,0.768,2.295C601.186,1065.678,601.875,1065.995,602.731,1065.995z"/>
			<path fill="#FFFFFF" d="M612.201,1066.417c0,0.308-0.105,0.565-0.316,0.783c-0.225,0.218-0.489,0.332-0.795,0.332
				c-0.308,0-0.567-0.114-0.777-0.332c-0.221-0.218-0.331-0.476-0.331-0.783c0-0.292,0.11-0.553,0.331-0.774
				c0.21-0.221,0.47-0.33,0.777-0.33c0.306,0,0.57,0.109,0.795,0.33C612.096,1065.864,612.201,1066.125,612.201,1066.417z"/>
			<path fill="#FFFFFF" d="M621.613,1060.81c-0.711-0.802-1.57-1.204-2.558-1.204c-0.833,0-1.547,0.316-2.128,0.938
				c-0.579,0.633-0.854,1.378-0.854,2.2c0,0.934,0.274,1.692,0.854,2.275c0.602,0.604,1.349,0.902,2.234,0.902
				c0.918,0,1.74-0.407,2.451-1.187v2.198c-0.739,0.394-1.561,0.599-2.466,0.599c-1.327,0-2.465-0.461-3.411-1.365
				c-0.928-0.888-1.389-2.002-1.389-3.343c0-1.377,0.461-2.535,1.389-3.448c0.937-0.916,2.104-1.376,3.505-1.376
				c0.925,0,1.711,0.199,2.372,0.588V1060.81z"/>
			<path fill="#FFFFFF" d="M624.045,1059.376c0.933-0.916,2.069-1.376,3.405-1.376c1.338,0,2.474,0.46,3.384,1.376
				c0.938,0.913,1.397,2.057,1.397,3.391c0,1.335-0.459,2.463-1.397,3.393c-0.91,0.912-2.046,1.373-3.384,1.373
				c-1.336,0-2.473-0.461-3.405-1.373c-0.919-0.93-1.38-2.058-1.38-3.393C622.665,1061.433,623.126,1060.289,624.045,1059.376z
				 M624.39,1062.767c0,0.824,0.303,1.56,0.9,2.191c0.578,0.624,1.31,0.925,2.16,0.925c0.84,0,1.566-0.301,2.161-0.925
				c0.602-0.632,0.899-1.367,0.899-2.191c0-0.843-0.298-1.583-0.899-2.202c-0.595-0.613-1.321-0.918-2.161-0.918
				c-0.851,0-1.582,0.305-2.16,0.918C624.692,1061.184,624.39,1061.924,624.39,1062.767z"/>
			<path fill="#FFFFFF" d="M635.469,1059.395h0.038c0.253-0.409,0.585-0.74,1.022-1.002c0.428-0.266,0.877-0.393,1.344-0.393
				c1.116,0,1.974,0.527,2.59,1.59c0.277-0.484,0.668-0.874,1.16-1.165c0.485-0.285,1.024-0.425,1.59-0.425
				c1.983,0,2.969,1.287,2.969,3.861v5.359h-1.719v-5.071c0-0.226-0.007-0.456-0.035-0.674c-0.012-0.231-0.055-0.446-0.1-0.65
				c-0.057-0.218-0.128-0.411-0.23-0.59c-0.104-0.17-0.247-0.338-0.42-0.477c-0.23-0.153-0.527-0.224-0.88-0.224
				c-0.363,0-0.662,0.07-0.916,0.224c-0.25,0.139-0.433,0.316-0.57,0.52c-0.137,0.213-0.242,0.483-0.313,0.8
				c-0.074,0.316-0.126,0.607-0.145,0.863c-0.023,0.251-0.029,0.547-0.029,0.883v4.396h-1.726v-4.744c0-0.307,0-0.555-0.013-0.762
				c-0.019-0.213-0.055-0.463-0.119-0.769c-0.062-0.331-0.142-0.571-0.246-0.731c-0.104-0.176-0.267-0.33-0.474-0.476
				c-0.228-0.136-0.479-0.204-0.786-0.204c-0.883,0-1.451,0.376-1.709,1.141c-0.113,0.365-0.187,0.693-0.226,1.018
				c-0.042,0.313-0.058,0.689-0.058,1.131v4.396h-1.725v-8.956h1.725V1059.395z"/>
		</g>
		<g>
			<g>
				<path fill="#FFFFFF" d="M337.684,1061.938c8.126,0,16.247,0,24.372,0c0.736,0,0.736-1.137,0-1.137c-8.125,0-16.246,0-24.372,0
					C336.949,1060.801,336.949,1061.938,337.684,1061.938L337.684,1061.938z"/>
			</g>
			<g>
				<path fill="#FFFFFF" d="M661.945,1061.938c8.125,0,16.248,0,24.367,0c0.743,0,0.743-1.137,0-1.137c-8.119,0-16.242,0-24.367,0
					C661.209,1060.801,661.209,1061.938,661.945,1061.938L661.945,1061.938z"/>
			</g>
		</g>
	</g>
</g>
<g>
	<path fill="#3F8CC8" d="M347.269,960.538h-11.325v-7.575c0-2.203-0.124-3.579-0.37-4.12c-0.236-0.548-0.777-0.818-1.597-0.818
		c-0.933,0-1.524,0.327-1.778,0.991c-0.254,0.664-0.377,2.096-0.377,4.308v20.236c0,2.121,0.123,3.498,0.377,4.144
		c0.254,0.647,0.813,0.975,1.695,0.975c0.846,0,1.394-0.327,1.655-0.975c0.265-0.646,0.396-2.17,0.396-4.562v-5.47h11.325v1.695
		c0,4.511-0.319,7.706-0.958,9.598c-0.639,1.885-2.046,3.537-4.228,4.953c-2.177,1.427-4.862,2.131-8.055,2.131
		c-3.32,0-6.052-0.599-8.208-1.802c-2.156-1.204-3.578-2.866-4.274-4.997c-0.704-2.12-1.056-5.322-1.056-9.588v-12.736
		c0-3.135,0.105-5.494,0.319-7.06c0.221-1.571,0.86-3.086,1.931-4.535c1.066-1.459,2.54-2.597,4.441-3.433
		c1.891-0.835,4.061-1.252,6.528-1.252c3.331,0,6.082,0.646,8.262,1.933c2.17,1.293,3.596,2.899,4.274,4.831
		c0.689,1.925,1.023,4.922,1.023,8.984V960.538z"/>
	<path fill="#3F8CC8" d="M370.92,941.563l6.477,43.568h-11.579l-0.606-7.829h-4.053l-0.679,7.829h-11.713l5.773-43.568H370.92z
		 M364.918,969.579c-0.573-4.937-1.147-11.038-1.727-18.303c-1.158,8.344-1.876,14.445-2.17,18.303H364.918z"/>
	<path fill="#3F8CC8" d="M379.324,941.563h8.015c5.356,0,8.978,0.205,10.86,0.615c1.901,0.418,3.44,1.466,4.638,3.169
		c1.194,1.695,1.785,4.398,1.785,8.107c0,3.391-0.417,5.676-1.263,6.839c-0.842,1.171-2.507,1.867-4.978,2.105
		c2.243,0.548,3.752,1.293,4.521,2.228c0.769,0.933,1.252,1.792,1.441,2.57c0.188,0.778,0.279,2.932,0.279,6.444v11.49h-10.516
		v-14.479c0-2.325-0.188-3.774-0.559-4.332c-0.366-0.557-1.324-0.836-2.899-0.836v19.646h-11.325V941.563z M390.648,949.016v9.688
		c1.277,0,2.17-0.172,2.688-0.524c0.505-0.352,0.77-1.482,0.77-3.398v-2.399c0-1.385-0.254-2.284-0.748-2.718
		C392.862,949.229,391.958,949.016,390.648,949.016z"/>
	<path fill="#3F8CC8" d="M435.004,957.599h-11.325v-3.956c0-2.489-0.109-4.054-0.319-4.676c-0.222-0.632-0.729-0.942-1.542-0.942
		c-0.697,0-1.179,0.262-1.422,0.803c-0.247,0.541-0.377,1.925-0.377,4.144v20.917c0,1.958,0.13,3.242,0.377,3.856
		c0.243,0.623,0.751,0.934,1.506,0.934c0.827,0,1.393-0.353,1.687-1.047c0.294-0.706,0.443-2.065,0.443-4.096v-5.168h-2.293v-6.617
		h13.266v23.381h-7.116l-1.048-3.119c-0.77,1.351-1.746,2.358-2.925,3.03c-1.18,0.671-2.555,1.007-4.158,1.007
		c-1.901,0-3.687-0.459-5.341-1.385c-1.669-0.925-2.932-2.071-3.792-3.431c-0.86-1.36-1.401-2.792-1.615-4.292
		c-0.21-1.499-0.326-3.75-0.326-6.748v-12.938c0-4.16,0.228-7.19,0.671-9.073c0.461-1.885,1.738-3.613,3.865-5.177
		c2.13-1.573,4.884-2.358,8.258-2.358c3.306,0,6.067,0.679,8.255,2.046c2.192,1.359,3.618,2.981,4.282,4.857
		s0.991,4.594,0.991,8.164V957.599z"/>
	<path fill="#3F8CC8" d="M465.288,967.073c0,4.382-0.105,7.477-0.308,9.304c-0.207,1.818-0.853,3.479-1.934,4.987
		c-1.089,1.508-2.555,2.671-4.405,3.473c-1.851,0.811-3.999,1.212-6.455,1.212c-2.34,0-4.438-0.378-6.288-1.146
		c-1.862-0.763-3.35-1.899-4.481-3.424c-1.128-1.531-1.811-3.187-2.021-4.979c-0.214-1.801-0.319-4.938-0.319-9.427v-7.453
		c0-4.38,0.105-7.477,0.301-9.295c0.214-1.825,0.853-3.488,1.941-4.994c1.089-1.508,2.555-2.662,4.398-3.473
		c1.851-0.811,4.006-1.212,6.47-1.212c2.326,0,4.423,0.385,6.274,1.146c1.869,0.761,3.356,1.906,4.488,3.431
		c1.129,1.524,1.8,3.187,2.014,4.979c0.214,1.794,0.326,4.931,0.326,9.418V967.073z M453.956,952.759
		c0-2.032-0.116-3.325-0.337-3.89c-0.221-0.566-0.679-0.845-1.383-0.845c-0.591,0-1.049,0.222-1.361,0.68
		c-0.312,0.459-0.475,1.81-0.475,4.055v20.351c0,2.521,0.105,4.086,0.312,4.675c0.214,0.6,0.686,0.894,1.44,0.894
		c0.77,0,1.263-0.343,1.484-1.023c0.21-0.679,0.319-2.31,0.319-4.873V952.759z"/>
	<path fill="#3F8CC8" d="M505.681,960.538h-11.329v-7.575c0-2.203-0.124-3.579-0.367-4.12c-0.239-0.548-0.769-0.818-1.596-0.818
		c-0.936,0-1.532,0.327-1.778,0.991c-0.247,0.664-0.378,2.096-0.378,4.308v20.236c0,2.121,0.131,3.498,0.378,4.144
		c0.246,0.647,0.82,0.975,1.702,0.975c0.838,0,1.393-0.327,1.654-0.975c0.254-0.646,0.385-2.17,0.385-4.562v-5.47h11.329v1.695
		c0,4.511-0.312,7.706-0.951,9.598c-0.639,1.885-2.047,3.537-4.228,4.953c-2.177,1.427-4.862,2.131-8.059,2.131
		c-3.324,0-6.06-0.599-8.204-1.802c-2.163-1.204-3.588-2.866-4.282-4.997c-0.697-2.12-1.06-5.322-1.06-9.588v-12.736
		c0-3.135,0.116-5.494,0.33-7.06c0.211-1.571,0.85-3.086,1.923-4.535c1.074-1.459,2.547-2.597,4.449-3.433
		c1.883-0.835,4.061-1.252,6.517-1.252c3.342,0,6.093,0.646,8.262,1.933c2.174,1.293,3.596,2.899,4.286,4.831
		c0.678,1.925,1.016,4.922,1.016,8.984V960.538z"/>
	<path fill="#3F8CC8" d="M535.638,967.073c0,4.382-0.097,7.477-0.312,9.304c-0.203,1.818-0.853,3.479-1.934,4.987
		c-1.089,1.508-2.555,2.671-4.405,3.473c-1.844,0.811-3.995,1.212-6.451,1.212c-2.337,0-4.431-0.378-6.292-1.146
		c-1.851-0.763-3.35-1.899-4.478-3.424c-1.132-1.531-1.803-3.187-2.025-4.979c-0.214-1.801-0.312-4.938-0.312-9.427v-7.453
		c0-4.38,0.098-7.477,0.305-9.295c0.203-1.825,0.853-3.488,1.941-4.994c1.081-1.508,2.554-2.662,4.398-3.473
		c1.843-0.811,4.002-1.212,6.463-1.212c2.325,0,4.419,0.385,6.28,1.146c1.858,0.761,3.35,1.906,4.478,3.431
		c1.132,1.524,1.804,3.187,2.025,4.979c0.21,1.794,0.318,4.931,0.318,9.418V967.073z M524.303,952.759
		c0-2.032-0.105-3.325-0.326-3.89c-0.229-0.566-0.689-0.845-1.394-0.845c-0.588,0-1.049,0.222-1.36,0.68
		c-0.31,0.459-0.465,1.81-0.465,4.055v20.351c0,2.521,0.104,4.086,0.301,4.675c0.214,0.6,0.689,0.894,1.444,0.894
		c0.77,0,1.267-0.343,1.48-1.023c0.222-0.679,0.319-2.31,0.319-4.873V952.759z"/>
	<path fill="#3F8CC8" d="M565.16,941.563v43.568h-9.924l-5.896-19.801v19.801h-9.478v-43.568h9.478l6.354,19.624v-19.624H565.16z"/>
	<path fill="#3F8CC8" d="M592.531,941.563v8.724h-6.725v34.845h-11.335v-34.845h-6.698v-8.724H592.531z"/>
	<path fill="#3F8CC8" d="M612.495,941.563l6.48,43.568h-11.583l-0.605-7.829h-4.054l-0.678,7.829h-11.713l5.772-43.568H612.495z
		 M606.493,969.579c-0.573-4.937-1.146-11.038-1.727-18.303c-1.155,8.344-1.876,14.445-2.171,18.303H606.493z"/>
	<path fill="#3F8CC8" d="M632.234,941.563v43.568h-11.336v-43.568H632.234z"/>
	<path fill="#3F8CC8" d="M662.076,941.563v43.568h-9.925l-5.896-19.801v19.801h-9.478v-43.568h9.478l6.354,19.624v-19.624H662.076z"
		/>
	<path fill="#3F8CC8" d="M666.629,941.563h18.895v8.724h-7.569v8.262h7.087v8.288h-7.087v9.583h8.32v8.712h-19.646V941.563z"/>
	<path fill="#3F8CC8" d="M689.525,941.563h8.026c5.349,0,8.97,0.205,10.86,0.615c1.891,0.418,3.433,1.466,4.626,3.169
		c1.198,1.695,1.797,4.398,1.797,8.107c0,3.391-0.429,5.676-1.271,6.839c-0.846,1.171-2.5,1.867-4.982,2.105
		c2.247,0.548,3.753,1.293,4.522,2.228c0.779,0.933,1.255,1.792,1.443,2.57c0.185,0.778,0.287,2.932,0.287,6.444v11.49h-10.526
		v-14.479c0-2.325-0.189-3.774-0.556-4.332c-0.37-0.557-1.328-0.836-2.892-0.836v19.646h-11.336V941.563z M700.861,949.016v9.688
		c1.277,0,2.17-0.172,2.678-0.524c0.516-0.352,0.77-1.482,0.77-3.398v-2.399c0-1.385-0.243-2.284-0.744-2.718
		C703.074,949.229,702.171,949.016,700.861,949.016z"/>
	<path fill="#3F8CC8" d="M743.225,954.749h-10.522v-3.228c0-1.506-0.139-2.466-0.41-2.883c-0.261-0.408-0.712-0.614-1.343-0.614
		c-0.679,0-1.193,0.278-1.546,0.828c-0.353,0.558-0.526,1.407-0.526,2.538c0,1.45,0.196,2.547,0.592,3.283
		c0.377,0.737,1.44,1.623,3.2,2.662c5.048,2.997,8.223,5.454,9.532,7.371c1.31,1.924,1.967,5.012,1.967,9.286
		c0,3.104-0.359,5.39-1.089,6.863c-0.729,1.476-2.137,2.703-4.22,3.701c-2.079,0.992-4.503,1.491-7.261,1.491
		c-3.033,0-5.621-0.573-7.765-1.72c-2.146-1.147-3.546-2.613-4.209-4.39c-0.664-1.777-0.998-4.292-0.998-7.56v-2.857h10.522v5.307
		c0,1.63,0.146,2.678,0.442,3.145c0.294,0.468,0.816,0.704,1.571,0.704s1.317-0.294,1.688-0.894
		c0.366-0.589,0.548-1.466,0.548-2.636c0-2.563-0.345-4.241-1.049-5.028c-0.711-0.794-2.481-2.112-5.297-3.955
		c-2.816-1.868-4.685-3.227-5.603-4.07s-1.67-2.007-2.275-3.498c-0.6-1.489-0.903-3.391-0.903-5.707c0-3.333,0.428-5.773,1.28-7.313
		c0.849-1.548,2.235-2.752,4.133-3.62c1.902-0.876,4.202-1.31,6.888-1.31c2.949,0,5.457,0.474,7.528,1.425
		c2.072,0.95,3.44,2.153,4.119,3.596c0.671,1.439,1.005,3.896,1.005,7.362V954.749z"/>
</g>
<g>
	<g>
		<g>
			
				<linearGradient id="SVGID_1_" gradientUnits="userSpaceOnUse" x1="509.2949" y1="121.1904" x2="544.5692" y2="155.4149" gradientTransform="matrix(1 -7.965760e-004 7.965760e-004 1 -0.1196 0.4219)">
				<stop  offset="0.0337" style="stop-color:#8D8984"/>
				<stop  offset="0.1183" style="stop-color:#969493"/>
				<stop  offset="0.2191" style="stop-color:#A4A4AA"/>
				<stop  offset="0.3408" style="stop-color:#95969C"/>
				<stop  offset="0.5733" style="stop-color:#6E7276"/>
				<stop  offset="0.7191" style="stop-color:#53585B"/>
				<stop  offset="1" style="stop-color:#7C8185"/>
			</linearGradient>
			<path fill="url(#SVGID_1_)" d="M516.959,114.479c-3.249,8.496-4.786,11.975,1.325,20.249c6.094,8.271,17.187,15.871,6.15,24.444
				c-7.915,6.145,11.044-1.168,11.044-1.168l-0.019-21.119l-10.988-18.28l1.391-8.688L516.959,114.479z"/>
			
				<linearGradient id="SVGID_2_" gradientUnits="userSpaceOnUse" x1="509.2949" y1="121.1904" x2="544.5692" y2="155.4149" gradientTransform="matrix(1 -7.965760e-004 7.965760e-004 1 -0.1196 0.4219)">
				<stop  offset="0.0337" style="stop-color:#8D8984"/>
				<stop  offset="0.1183" style="stop-color:#969493"/>
				<stop  offset="0.2191" style="stop-color:#A4A4AA"/>
				<stop  offset="0.3408" style="stop-color:#95969C"/>
				<stop  offset="0.5733" style="stop-color:#6E7276"/>
				<stop  offset="0.7191" style="stop-color:#53585B"/>
				<stop  offset="1" style="stop-color:#7C8185"/>
			</linearGradient>
			<path opacity="0.5" fill="url(#SVGID_2_)" d="M516.959,114.479c-3.249,8.496-4.786,11.975,1.325,20.249
				c6.094,8.271,17.187,15.871,6.15,24.444c-7.915,6.145,11.044-1.168,11.044-1.168l-0.019-21.119l-10.988-18.28l1.391-8.688
				L516.959,114.479z"/>
			
				<linearGradient id="SVGID_3_" gradientUnits="userSpaceOnUse" x1="482.6841" y1="128.9111" x2="526.0918" y2="171.027" gradientTransform="matrix(0.9963 0.0864 -0.0864 0.9963 36.5967 -45.9316)">
				<stop  offset="0.0337" style="stop-color:#8D8984"/>
				<stop  offset="0.1183" style="stop-color:#969493"/>
				<stop  offset="0.2191" style="stop-color:#A4A4AA"/>
				<stop  offset="0.3408" style="stop-color:#95969C"/>
				<stop  offset="0.5733" style="stop-color:#6E7276"/>
				<stop  offset="0.7191" style="stop-color:#53585B"/>
				<stop  offset="1" style="stop-color:#7C8185"/>
			</linearGradient>
			<path fill="url(#SVGID_3_)" d="M520.475,113.33c-1.378,7.3-3.042,15.683,5.689,24.042c8.73,8.362,7.382,19.74,0.753,21.386
				c-6.636,1.65-9.739-1.209-12.593-8.688c-2.898-7.483-6.322-12.785-10.36-11.095c-4.039,1.681,2.322,5.212,2.283,12.249
				c-0.065,7.037,3.23,20.302,17.784,21.565c14.538,1.264,20.977-10.98,21.662-14.812c0.708-3.838,2.195-14.144-6.856-23.402
				c-10.854-11.09-9.61-16.256-9.272-20.125L520.475,113.33z"/>
		</g>
		
			<linearGradient id="SVGID_4_" gradientUnits="userSpaceOnUse" x1="489.3037" y1="37.1733" x2="541.1406" y2="37.1733" gradientTransform="matrix(1 -7.965760e-004 7.965760e-004 1 -0.1196 0.4219)">
			<stop  offset="0.0151" style="stop-color:#242424"/>
			<stop  offset="0.5861" style="stop-color:#2C2C2C"/>
			<stop  offset="1" style="stop-color:#363636"/>
		</linearGradient>
		<path fill="url(#SVGID_4_)" d="M489.488,38.208c-0.675-6.853-0.678-9.469,6.718-9.04c7.39,0.433,41.813,3.241,43.097,3.995
			c1.313,0.76,1.755,12.078,1.755,12.078L489.488,38.208z"/>
		<g>
			
				<linearGradient id="SVGID_5_" gradientUnits="userSpaceOnUse" x1="556.2852" y1="115.8901" x2="510.661" y2="37.4574" gradientTransform="matrix(1 -7.965760e-004 7.965760e-004 1 -0.1196 0.4219)">
				<stop  offset="0" style="stop-color:#F08234"/>
				<stop  offset="0.3079" style="stop-color:#F69736"/>
				<stop  offset="0.7236" style="stop-color:#FDAE37"/>
				<stop  offset="0.9849" style="stop-color:#FFB738"/>
			</linearGradient>
			<path fill="url(#SVGID_5_)" d="M558.309,114.505l-44.44,5.384c-1.195,0.151-2.182-0.572-2.182-1.617l-0.065-80.516
				c0-1.045,0.984-1.768,2.179-1.62l44.452,5.313c0.917,0.116,1.65,0.931,1.653,1.837l0.055,69.379
				C559.96,113.572,559.226,114.387,558.309,114.505z"/>
			
				<linearGradient id="SVGID_6_" gradientUnits="userSpaceOnUse" x1="556.1846" y1="115.6338" x2="510.9277" y2="37.8325" gradientTransform="matrix(1 -7.965760e-004 7.965760e-004 1 -0.1196 0.4219)">
				<stop  offset="0" style="stop-color:#F08234"/>
				<stop  offset="0.3079" style="stop-color:#F69736"/>
				<stop  offset="0.7236" style="stop-color:#FDAE37"/>
				<stop  offset="0.9849" style="stop-color:#FFB738"/>
			</linearGradient>
			<path opacity="0.5" fill="url(#SVGID_6_)" d="M557.435,114.607l-42.399,5.142c-1.838,0.232-3.349-0.882-3.352-2.49l-0.063-78.495
				c0-1.603,1.508-2.707,3.347-2.489l42.409,5.074c1.403,0.17,2.528,1.417,2.528,2.8l0.055,67.655
				C559.96,113.182,558.838,114.437,557.435,114.607z"/>
			<g>
				
					<linearGradient id="SVGID_7_" gradientUnits="userSpaceOnUse" x1="542.7168" y1="120.5269" x2="517.3619" y2="76.9391" gradientTransform="matrix(1 -7.965760e-004 7.965760e-004 1 -0.1196 0.4219)">
					<stop  offset="0.0151" style="stop-color:#242424"/>
					<stop  offset="0.5861" style="stop-color:#2C2C2C"/>
					<stop  offset="1" style="stop-color:#363636"/>
				</linearGradient>
				<path fill="url(#SVGID_7_)" d="M511.655,80.241l0.008,9.414l32.346,26.582l5.76-0.696c0.922-0.113,1.817-0.377,2.663-0.7
					L511.655,80.241z"/>
				
					<linearGradient id="SVGID_8_" gradientUnits="userSpaceOnUse" x1="523.7344" y1="120.9155" x2="513.7772" y2="103.7982" gradientTransform="matrix(1 -7.965760e-004 7.965760e-004 1 -0.1196 0.4219)">
					<stop  offset="0.0151" style="stop-color:#242424"/>
					<stop  offset="0.5861" style="stop-color:#2C2C2C"/>
					<stop  offset="1" style="stop-color:#363636"/>
				</linearGradient>
				<path fill="url(#SVGID_8_)" d="M511.676,105.014l0.003,3.773c0.005,6.28,5.859,10.66,12.793,9.818l4.062-0.496L511.676,105.014z
					"/>
				
					<linearGradient id="SVGID_9_" gradientUnits="userSpaceOnUse" x1="552.7588" y1="111.457" x2="518.0443" y2="51.7793" gradientTransform="matrix(1 -7.965760e-004 7.965760e-004 1 -0.1196 0.4219)">
					<stop  offset="0.0151" style="stop-color:#242424"/>
					<stop  offset="0.5861" style="stop-color:#2C2C2C"/>
					<stop  offset="1" style="stop-color:#363636"/>
				</linearGradient>
				<path fill="url(#SVGID_9_)" d="M511.634,55.478l0.008,9.404l47.787,42.65c0.32-0.975,0.525-1.983,0.523-3.038l-0.003-4.614
					L511.634,55.478z"/>
				
					<linearGradient id="SVGID_10_" gradientUnits="userSpaceOnUse" x1="554.1221" y1="90.082" x2="521.3678" y2="33.7741" gradientTransform="matrix(1 -7.965760e-004 7.965760e-004 1 -0.1196 0.4219)">
					<stop  offset="0.0151" style="stop-color:#242424"/>
					<stop  offset="0.5861" style="stop-color:#2C2C2C"/>
					<stop  offset="1" style="stop-color:#363636"/>
				</linearGradient>
				<path fill="url(#SVGID_10_)" d="M518.899,37.922c-2.3,0.724-7.281-2.048-5.508,3.905l46.547,44.817l-0.008-8.107L518.899,37.922
					z"/>
				
					<linearGradient id="SVGID_11_" gradientUnits="userSpaceOnUse" x1="557.9111" y1="66.5327" x2="539.7415" y2="35.2972" gradientTransform="matrix(1 -7.965760e-004 7.965760e-004 1 -0.1196 0.4219)">
					<stop  offset="0.0151" style="stop-color:#242424"/>
					<stop  offset="0.5861" style="stop-color:#2C2C2C"/>
					<stop  offset="1" style="stop-color:#363636"/>
				</linearGradient>
				<polygon fill="url(#SVGID_11_)" points="543.396,39.671 534.049,38.554 559.921,65.3 559.915,57.186 				"/>
			</g>
			<path fill="#DED0C5" d="M557.838,41.406l-43.493-5.211c-1.51-0.186-2.724,0.725-2.724,2.022l0.063,79.594
				c0.003,1.297,1.219,2.203,2.729,2.02l43.482-5.282c1.147-0.136,2.064-1.159,2.064-2.273l-0.055-68.598
				C559.902,42.563,558.986,41.54,557.838,41.406z M559.135,113.583L559.135,113.583l-43.112,5.121l0,0l-0.063-78.597l43.121,4.696
				L559.135,113.583z"/>
			<g>
				
					<linearGradient id="SVGID_12_" gradientUnits="userSpaceOnUse" x1="557.251" y1="118.8027" x2="507.8557" y2="33.8871" gradientTransform="matrix(1 -7.965760e-004 7.965760e-004 1 -0.1196 0.4219)">
					<stop  offset="0" style="stop-color:#F08234"/>
					<stop  offset="0.3079" style="stop-color:#F69736"/>
					<stop  offset="0.7236" style="stop-color:#FDAE37"/>
					<stop  offset="0.9849" style="stop-color:#FFB738"/>
				</linearGradient>
				<path fill="url(#SVGID_12_)" d="M561.821,116.083l-52.661,6.747c-0.135,0.026-0.253-0.055-0.253-0.172l-0.069-89.283
					c0-0.117,0.114-0.198,0.252-0.172l52.672,6.663c0.097,0.011,0.159,0.102,0.159,0.192l0.06,75.832
					C561.98,115.994,561.918,116.073,561.821,116.083z M514.327,38.521l0.062,78.977l43.529-4.991l-0.055-69.06L514.327,38.521z"/>
			</g>
		</g>
		<path opacity="0.5" fill="#DED0C5" d="M561.762,39.866l-52.672-6.663c-0.138-0.026-0.252,0.055-0.252,0.172l0.069,89.283
			c0,0.117,0.118,0.198,0.253,0.172l52.661-6.747c0.097-0.01,0.159-0.09,0.159-0.193l-0.06-75.832
			C561.921,39.968,561.858,39.877,561.762,39.866z"/>
		<g>
			
				<linearGradient id="SVGID_13_" gradientUnits="userSpaceOnUse" x1="515.0986" y1="115.0176" x2="473.1115" y2="42.8374" gradientTransform="matrix(1 -7.965760e-004 7.965760e-004 1 -0.1196 0.4219)">
				<stop  offset="0" style="stop-color:#F08234"/>
				<stop  offset="0.3079" style="stop-color:#F69736"/>
				<stop  offset="0.7236" style="stop-color:#FDAE37"/>
				<stop  offset="0.9849" style="stop-color:#FFB738"/>
			</linearGradient>
			<path fill="url(#SVGID_13_)" d="M505.989,120.099l-27.37-3.739c-0.594-0.081-1.075-0.906-1.078-1.859l-0.057-72.918
				c0-0.953,0.481-1.778,1.075-1.859l27.362-3.79c0.733-0.092,1.313,0.68,1.313,1.725l0.064,80.719
				C507.299,119.423,506.723,120.195,505.989,120.099z"/>
			
				<linearGradient id="SVGID_14_" gradientUnits="userSpaceOnUse" x1="514.9053" y1="114.7524" x2="473.1735" y2="43.0112" gradientTransform="matrix(1 -7.965760e-004 7.965760e-004 1 -0.1196 0.4219)">
				<stop  offset="0" style="stop-color:#F08234"/>
				<stop  offset="0.3079" style="stop-color:#F69736"/>
				<stop  offset="0.7236" style="stop-color:#FDAE37"/>
				<stop  offset="0.9849" style="stop-color:#FFB738"/>
			</linearGradient>
			<path opacity="0.5" fill="url(#SVGID_14_)" d="M505.325,120.008l-26.154-3.569c-0.896-0.127-1.627-1.404-1.63-2.845
				l-0.057-71.105c0-1.446,0.731-2.717,1.627-2.847l26.146-3.617c1.077-0.134,1.977,1.033,1.977,2.642l0.062,78.704
				C507.299,118.978,506.403,120.147,505.325,120.008z"/>
			<g>
				
					<linearGradient id="SVGID_15_" gradientUnits="userSpaceOnUse" x1="499.2637" y1="120.4282" x2="476.2156" y2="80.8063" gradientTransform="matrix(1 -7.965760e-004 7.965760e-004 1 -0.1196 0.4219)">
					<stop  offset="0.0151" style="stop-color:#242424"/>
					<stop  offset="0.5861" style="stop-color:#2C2C2C"/>
					<stop  offset="1" style="stop-color:#363636"/>
				</linearGradient>
				<path fill="url(#SVGID_15_)" d="M477.516,80.059l0.007,8.521l18.225,30.118l3.93,0.539c0.664,0.09,1.307,0.009,1.908-0.152
					L477.516,80.059z"/>
				
					<linearGradient id="SVGID_16_" gradientUnits="userSpaceOnUse" x1="484.6338" y1="118.3672" x2="475.9308" y2="103.4058" gradientTransform="matrix(1 -7.965760e-004 7.965760e-004 1 -0.1196 0.4219)">
					<stop  offset="0.0151" style="stop-color:#242424"/>
					<stop  offset="0.5861" style="stop-color:#2C2C2C"/>
					<stop  offset="1" style="stop-color:#363636"/>
				</linearGradient>
				<path fill="url(#SVGID_16_)" d="M477.534,102.491l0.002,3.419c0.003,5.696,2.901,10.699,6.528,11.189l2.25,0.31L477.534,102.491
					z"/>
				
					<linearGradient id="SVGID_17_" gradientUnits="userSpaceOnUse" x1="508.0488" y1="111.6162" x2="476.8624" y2="58.0036" gradientTransform="matrix(1 -7.965760e-004 7.965760e-004 1 -0.1196 0.4219)">
					<stop  offset="0.0151" style="stop-color:#242424"/>
					<stop  offset="0.5861" style="stop-color:#2C2C2C"/>
					<stop  offset="1" style="stop-color:#363636"/>
				</linearGradient>
				<path fill="url(#SVGID_17_)" d="M477.497,57.632l0.008,8.515l29.375,46.147c0.249-1.066,0.411-2.202,0.411-3.424l-0.005-5.369
					L477.497,57.632z"/>
				
					<linearGradient id="SVGID_18_" gradientUnits="userSpaceOnUse" x1="507.9565" y1="87.7207" x2="480.4225" y2="40.3867" gradientTransform="matrix(1 -7.965760e-004 7.965760e-004 1 -0.1196 0.4219)">
					<stop  offset="0.0151" style="stop-color:#242424"/>
					<stop  offset="0.5861" style="stop-color:#2C2C2C"/>
					<stop  offset="1" style="stop-color:#363636"/>
				</linearGradient>
				<path fill="url(#SVGID_18_)" d="M481.111,40.476c-1.174,1.084-3.627-0.603-2.752,4.526l28.913,43.104l-0.008-9.437
					L481.111,40.476z"/>
				
					<linearGradient id="SVGID_19_" gradientUnits="userSpaceOnUse" x1="508.1958" y1="62.7534" x2="492.8069" y2="36.2983" gradientTransform="matrix(1 -7.965760e-004 7.965760e-004 1 -0.1196 0.4219)">
					<stop  offset="0.0151" style="stop-color:#242424"/>
					<stop  offset="0.5861" style="stop-color:#2C2C2C"/>
					<stop  offset="1" style="stop-color:#363636"/>
				</linearGradient>
				<polygon fill="url(#SVGID_19_)" points="495.321,37.399 489.488,38.208 507.255,63.278 507.247,53.841 				"/>
			</g>
			<path fill="#DED0C5" d="M505.622,35.981l-26.813,3.708c-0.731,0.103-1.325,1.138-1.325,2.306l0.057,72.093
				c0.003,1.167,0.596,2.201,1.331,2.303l26.817,3.665c0.875,0.113,1.609-0.842,1.606-2.139l-0.062-79.803
				C507.234,36.817,506.497,35.864,505.622,35.981z M506.653,119.241L506.653,119.241l-26.979-3.595l0,0l-0.057-72.639l26.971-3.398
				L506.653,119.241z"/>
			<g>
				
					<linearGradient id="SVGID_20_" gradientUnits="userSpaceOnUse" x1="517.2109" y1="117.959" x2="472.0748" y2="40.3653" gradientTransform="matrix(1 -7.965760e-004 7.965760e-004 1 -0.1196 0.4219)">
					<stop  offset="0" style="stop-color:#F08234"/>
					<stop  offset="0.3079" style="stop-color:#F69736"/>
					<stop  offset="0.7236" style="stop-color:#FDAE37"/>
					<stop  offset="0.9849" style="stop-color:#FFB738"/>
				</linearGradient>
				<path fill="url(#SVGID_20_)" d="M508.772,122.841l-32.426-4.669c-0.067-0.01-0.109-0.102-0.112-0.193l-0.063-79.873
					c0-0.091,0.044-0.182,0.112-0.192l32.418-4.727c0.089-0.01,0.136,0.071,0.136,0.188l0.069,89.283
					C508.907,122.775,508.863,122.856,508.772,122.841z M478.813,41.822l0.057,72.435l26.817,3.458l-0.062-79.392L478.813,41.822z"
					/>
			</g>
		</g>
	</g>
	<g>
		
			<linearGradient id="SVGID_21_" gradientUnits="userSpaceOnUse" x1="542.7871" y1="34.1519" x2="525.3835" y2="4.2332" gradientTransform="matrix(1 -7.965760e-004 7.965760e-004 1 -0.1196 0.4219)">
			<stop  offset="0.0151" style="stop-color:#242424"/>
			<stop  offset="0.5861" style="stop-color:#2C2C2C"/>
			<stop  offset="1" style="stop-color:#363636"/>
		</linearGradient>
		<polygon fill="url(#SVGID_21_)" points="532.56,-0.014 532.788,38.393 535.402,38.391 535.174,-0.016 		"/>
		
			<linearGradient id="SVGID_22_" gradientUnits="userSpaceOnUse" x1="504.0308" y1="30.6333" x2="488.3777" y2="3.724" gradientTransform="matrix(1 -7.965760e-004 7.965760e-004 1 -0.1196 0.4219)">
			<stop  offset="0.0151" style="stop-color:#242424"/>
			<stop  offset="0.5861" style="stop-color:#2C2C2C"/>
			<stop  offset="1" style="stop-color:#363636"/>
		</linearGradient>
		<polygon fill="url(#SVGID_22_)" points="494.678,0.016 494.904,34.394 497.519,34.392 497.292,0.014 		"/>
	</g>
</g>
<g>
	<g>
		<rect x="92.951" y="701.398" fill="#7BBCCC" width="591.659" height="203.881"/>
		<rect x="259.174" y="701.398" fill="#7BBCCC" width="425.208" height="203.881"/>
		<rect x="277.369" y="718.531" opacity="0.49" fill="#7BBCCC" width="407.013" height="186.748"/>
		<g>
			<rect x="92.951" y="701.398" fill="#7BBCCC" width="158.716" height="203.881"/>
			<g>
				<polygon fill="#7BBCCC" points="119.713,712.534 112,712.534 103.439,712.534 103.439,717.675 103.439,893.287 112,893.287 
					112,717.675 119.713,717.675 				"/>
				<polygon fill="#7BBCCC" points="143.71,712.534 135.823,712.534 127.426,712.534 127.252,712.534 127.252,893.287 
					135.823,893.287 135.823,717.675 143.71,717.675 				"/>
				<polygon fill="#7BBCCC" points="167.697,712.534 159.643,712.534 151.418,712.534 151.076,712.534 151.076,893.287 
					159.643,893.287 159.643,716.817 167.697,716.817 				"/>
				<polygon fill="#7BBCCC" points="190.831,712.534 183.461,712.534 174.895,712.534 174.552,712.534 174.552,716.817 
					174.895,716.817 174.895,893.287 183.461,893.287 183.461,716.817 190.831,716.817 				"/>
				<polygon fill="#7BBCCC" points="214.822,712.534 207.283,712.534 198.713,712.534 198.544,712.534 198.544,716.817 
					198.713,716.817 198.713,893.287 207.283,893.287 207.283,716.817 214.822,716.817 				"/>
				<polygon fill="#7BBCCC" points="238.811,712.534 231.102,712.534 222.531,712.534 222.531,716.817 222.531,893.287 
					231.102,893.287 231.102,716.817 238.811,716.817 				"/>
			</g>
			<g>
				<rect x="277.369" y="718.531" fill="#7BBCCC" width="6.855" height="185.337"/>
				<rect x="300.043" y="718.531" fill="#7BBCCC" width="6.854" height="185.337"/>
				<rect x="322.715" y="718.531" fill="#7BBCCC" width="6.855" height="185.337"/>
				<rect x="345.389" y="718.531" fill="#7BBCCC" width="6.85" height="185.337"/>
				<rect x="368.057" y="718.531" fill="#7BBCCC" width="6.855" height="185.337"/>
				<rect x="390.729" y="718.531" fill="#7BBCCC" width="6.854" height="185.337"/>
				<rect x="413.402" y="718.531" fill="#7BBCCC" width="6.855" height="185.337"/>
				<rect x="436.076" y="718.531" fill="#7BBCCC" width="6.854" height="185.337"/>
				<rect x="458.748" y="718.531" fill="#7BBCCC" width="6.855" height="185.337"/>
				<rect x="481.422" y="718.531" fill="#7BBCCC" width="6.854" height="185.337"/>
				<rect x="504.094" y="718.531" fill="#7BBCCC" width="6.856" height="185.337"/>
				<rect x="526.767" y="718.531" fill="#7BBCCC" width="6.855" height="185.337"/>
				<rect x="549.44" y="718.531" fill="#7BBCCC" width="6.854" height="185.337"/>
				<rect x="572.113" y="718.531" fill="#7BBCCC" width="6.855" height="185.337"/>
				<rect x="571.721" y="718.719" fill="#7BBCCC" width="6.854" height="185.34"/>
				<rect x="594.394" y="718.719" fill="#7BBCCC" width="6.855" height="185.34"/>
				<rect x="617.065" y="718.719" fill="#7BBCCC" width="6.854" height="185.34"/>
				<rect x="639.739" y="718.719" fill="#7BBCCC" width="6.854" height="185.34"/>
				<rect x="662.412" y="718.719" fill="#7BBCCC" width="6.855" height="185.34"/>
			</g>
		</g>
		<rect x="264.488" y="705.623" fill="#7BBCCC" width="8.167" height="8.167"/>
		<rect x="245.822" y="705.623" fill="#7BBCCC" width="8.166" height="8.167"/>
		<polygon opacity="0.49" fill="#7BBCCC" points="284.77,725.531 684.382,725.531 684.382,718.531 277.369,718.531 277.369,905.279 
			284.77,905.279 		"/>
	</g>
	<g>
		<rect x="332.487" y="701.398" fill="#D14B4B" width="591.659" height="203.881"/>
		<rect x="498.71" y="701.398" fill="#D14B4B" width="425.208" height="203.881"/>
		<rect x="516.906" y="718.531" opacity="0.49" fill="#D14B4B" width="407.012" height="186.748"/>
		<g>
			<rect x="332.487" y="701.398" fill="#D14B4B" width="158.716" height="203.881"/>
			<g>
				<polygon fill="#7BBCCC" points="359.25,712.534 351.537,712.534 342.975,712.534 342.975,717.675 342.975,893.287 
					351.537,893.287 351.537,717.675 359.25,717.675 				"/>
				<polygon fill="#7BBCCC" points="383.246,712.534 375.359,712.534 366.963,712.534 366.789,712.534 366.789,893.287 
					375.359,893.287 375.359,717.675 383.246,717.675 				"/>
				<polygon fill="#7BBCCC" points="407.233,712.534 399.179,712.534 390.954,712.534 390.612,712.534 390.612,893.287 
					399.179,893.287 399.179,716.817 407.233,716.817 				"/>
				<polygon fill="#7BBCCC" points="430.367,712.534 422.997,712.534 414.431,712.534 414.088,712.534 414.088,716.817 
					414.431,716.817 414.431,893.287 422.997,893.287 422.997,716.817 430.367,716.817 				"/>
				<polygon fill="#7BBCCC" points="454.359,712.534 446.82,712.534 438.249,712.534 438.08,712.534 438.08,716.817 
					438.249,716.817 438.249,893.287 446.82,893.287 446.82,716.817 454.359,716.817 				"/>
				<polygon fill="#7BBCCC" points="478.347,712.534 470.638,712.534 462.067,712.534 462.067,716.817 462.067,893.287 
					470.638,893.287 470.638,716.817 478.347,716.817 				"/>
			</g>
			<g>
				<rect x="516.906" y="718.531" fill="#D14B4B" width="6.854" height="185.337"/>
				<rect x="539.579" y="718.531" fill="#D14B4B" width="6.854" height="185.337"/>
				<rect x="562.252" y="718.531" fill="#D14B4B" width="6.854" height="185.337"/>
				<rect x="584.924" y="718.531" fill="#D14B4B" width="6.851" height="185.337"/>
				<rect x="607.593" y="718.531" fill="#D14B4B" width="6.855" height="185.337"/>
				<rect x="630.266" y="718.531" fill="#D14B4B" width="6.855" height="185.337"/>
				<rect x="652.938" y="718.531" fill="#D14B4B" width="6.855" height="185.337"/>
				<rect x="675.612" y="718.531" fill="#D14B4B" width="6.854" height="185.337"/>
				<rect x="698.284" y="718.531" fill="#D14B4B" width="6.855" height="185.337"/>
				<rect x="720.958" y="718.531" fill="#D14B4B" width="6.854" height="185.337"/>
				<rect x="743.629" y="718.531" fill="#D14B4B" width="6.857" height="185.337"/>
				<rect x="766.303" y="718.531" fill="#D14B4B" width="6.854" height="185.337"/>
				<rect x="788.977" y="718.531" fill="#D14B4B" width="6.854" height="185.337"/>
				<rect x="811.649" y="718.531" fill="#D14B4B" width="6.854" height="185.337"/>
				<rect x="811.257" y="718.719" fill="#D14B4B" width="6.854" height="185.34"/>
				<rect x="833.93" y="718.719" fill="#D14B4B" width="6.855" height="185.34"/>
				<rect x="856.602" y="718.719" fill="#D14B4B" width="6.854" height="185.34"/>
				<rect x="879.275" y="718.719" fill="#D14B4B" width="6.854" height="185.34"/>
				<rect x="901.948" y="718.719" fill="#D14B4B" width="6.854" height="185.34"/>
			</g>
		</g>
		<rect x="504.025" y="705.623" fill="#7BBCCC" width="8.166" height="8.167"/>
		<rect x="485.358" y="705.623" fill="#7BBCCC" width="8.167" height="8.167"/>
		<polygon opacity="0.49" fill="#7BBCCC" points="524.306,725.531 923.918,725.531 923.918,718.531 516.906,718.531 
			516.906,905.279 524.306,905.279 		"/>
	</g>
	<g>
		<rect x="113.369" y="506.336" fill="#DF9630" width="591.659" height="197.642"/>
		<rect x="279.592" y="506.336" fill="#FFB043" width="425.208" height="197.642"/>
		<rect x="297.788" y="522.944" fill="#DF9630" width="407.012" height="181.033"/>
		<g>
			<rect x="113.369" y="506.336" fill="#DF9630" width="158.716" height="197.642"/>
			<g>
				<polygon fill="#7BBCCC" points="140.132,517.131 132.419,517.131 123.856,517.131 123.856,522.114 123.856,692.353 
					132.419,692.353 132.419,522.114 140.132,522.114 				"/>
				<polygon fill="#7BBCCC" points="164.128,517.131 156.241,517.131 147.845,517.131 147.671,517.131 147.671,692.353 
					156.241,692.353 156.241,522.114 164.128,522.114 				"/>
				<polygon fill="#7BBCCC" points="188.115,517.131 180.061,517.131 171.836,517.131 171.494,517.131 171.494,692.353 
					180.061,692.353 180.061,521.283 188.115,521.283 				"/>
				<polygon fill="#7BBCCC" points="211.249,517.131 203.879,517.131 195.313,517.131 194.97,517.131 194.97,521.283 
					195.313,521.283 195.313,692.353 203.879,692.353 203.879,521.283 211.249,521.283 				"/>
				<polygon fill="#7BBCCC" points="235.241,517.131 227.702,517.131 219.131,517.131 218.962,517.131 218.962,521.283 
					219.131,521.283 219.131,692.353 227.702,692.353 227.702,521.283 235.241,521.283 				"/>
				<polygon fill="#7BBCCC" points="259.229,517.131 251.52,517.131 242.949,517.131 242.949,521.283 242.949,692.353 
					251.52,692.353 251.52,521.283 259.229,521.283 				"/>
			</g>
			<g>
				<g>
					<rect x="297.788" y="522.944" fill="#9B5525" width="6.854" height="179.665"/>
					<rect x="320.461" y="522.944" fill="#9B5525" width="6.854" height="179.665"/>
					<rect x="343.134" y="522.944" fill="#9B5525" width="6.854" height="179.665"/>
					<rect x="365.806" y="522.944" fill="#9B5525" width="6.851" height="179.665"/>
					<rect x="388.475" y="522.944" fill="#9B5525" width="6.855" height="179.665"/>
					<rect x="411.147" y="522.944" fill="#9B5525" width="6.855" height="179.665"/>
					<rect x="433.82" y="522.944" fill="#9B5525" width="6.855" height="179.665"/>
					<rect x="456.494" y="522.944" fill="#9B5525" width="6.854" height="179.665"/>
					<rect x="479.166" y="522.944" fill="#9B5525" width="6.855" height="179.665"/>
					<rect x="501.84" y="522.944" fill="#9B5525" width="6.854" height="179.665"/>
					<rect x="524.511" y="522.944" fill="#9B5525" width="6.857" height="179.665"/>
					<rect x="547.185" y="522.944" fill="#9B5525" width="6.854" height="179.665"/>
					<rect x="569.858" y="522.944" fill="#9B5525" width="6.854" height="179.665"/>
					<rect x="592.531" y="522.944" fill="#9B5525" width="6.854" height="179.665"/>
					<rect x="592.139" y="523.126" fill="#9B5525" width="6.854" height="179.668"/>
					<rect x="614.812" y="523.126" fill="#9B5525" width="6.855" height="179.668"/>
					<rect x="637.483" y="523.126" fill="#9B5525" width="6.854" height="179.668"/>
					<rect x="660.157" y="523.126" fill="#9B5525" width="6.854" height="179.668"/>
					<rect x="682.83" y="523.126" fill="#9B5525" width="6.854" height="179.668"/>
				</g>
			</g>
		</g>
		<rect x="284.907" y="510.431" fill="#7BBCCC" width="8.166" height="7.918"/>
		<rect x="266.24" y="510.431" fill="#7BBCCC" width="8.167" height="7.918"/>
		<polygon opacity="0.49" fill="#7BBCCC" points="305.188,529.73 704.8,529.73 704.8,522.944 297.788,522.944 297.788,703.978 
			305.188,703.978 		"/>
	</g>
	<g>
		<rect x="388.836" y="506.336" fill="#7BBCCC" width="573.554" height="197.642"/>
		<rect x="549.973" y="506.336" fill="#7BBCCC" width="412.195" height="197.642"/>
		<rect x="567.61" y="522.944" opacity="0.49" fill="#7BBCCC" width="394.558" height="181.033"/>
		<g>
			<rect x="388.836" y="506.336" fill="#7BBCCC" width="153.859" height="197.642"/>
			<g>
				<polygon fill="#7BBCCC" points="414.779,517.131 407.303,517.131 399.002,517.131 399.002,522.114 399.002,692.353 
					407.303,692.353 407.303,522.114 414.779,522.114 				"/>
				<polygon fill="#7BBCCC" points="438.041,517.131 430.396,517.131 422.256,517.131 422.088,517.131 422.088,692.353 
					430.396,692.353 430.396,522.114 438.041,522.114 				"/>
				<polygon fill="#7BBCCC" points="461.295,517.131 453.486,517.131 445.514,517.131 445.182,517.131 445.182,692.353 
					453.486,692.353 453.486,521.282 461.295,521.282 				"/>
				<polygon fill="#7BBCCC" points="483.721,517.131 476.575,517.131 468.271,517.131 467.939,517.131 467.939,521.282 
					468.271,521.282 468.271,692.353 476.575,692.353 476.575,521.282 483.721,521.282 				"/>
				<polygon fill="#7BBCCC" points="506.978,517.131 499.67,517.131 491.36,517.131 491.197,517.131 491.197,521.282 
					491.36,521.282 491.36,692.353 499.67,692.353 499.67,521.282 506.978,521.282 				"/>
				<polygon fill="#7BBCCC" points="530.231,517.131 522.76,517.131 514.45,517.131 514.45,521.282 514.45,692.353 522.76,692.353 
					522.76,521.282 530.231,521.282 				"/>
			</g>
			<g>
				<rect x="567.61" y="522.944" fill="#7BBCCC" width="6.646" height="179.666"/>
				<rect x="589.59" y="522.944" fill="#7BBCCC" width="6.646" height="179.666"/>
				<rect x="611.568" y="522.944" fill="#7BBCCC" width="6.646" height="179.666"/>
				<rect x="633.548" y="522.944" fill="#7BBCCC" width="6.641" height="179.666"/>
				<rect x="655.523" y="522.944" fill="#7BBCCC" width="6.645" height="179.666"/>
				<rect x="677.502" y="522.944" fill="#7BBCCC" width="6.645" height="179.666"/>
				<rect x="699.48" y="522.944" fill="#7BBCCC" width="6.646" height="179.666"/>
				<rect x="721.461" y="522.944" fill="#7BBCCC" width="6.645" height="179.666"/>
				<rect x="743.439" y="522.944" fill="#7BBCCC" width="6.646" height="179.666"/>
				<rect x="765.419" y="522.944" fill="#7BBCCC" width="6.646" height="179.666"/>
				<rect x="787.397" y="522.944" fill="#7BBCCC" width="6.646" height="179.666"/>
				<rect x="809.376" y="522.944" fill="#7BBCCC" width="6.646" height="179.666"/>
				<rect x="831.356" y="522.944" fill="#7BBCCC" width="6.645" height="179.666"/>
				<rect x="853.335" y="522.944" fill="#7BBCCC" width="6.646" height="179.666"/>
				<rect x="852.955" y="523.126" fill="#7BBCCC" width="6.645" height="179.668"/>
				<rect x="874.934" y="523.126" fill="#7BBCCC" width="6.646" height="179.668"/>
				<rect x="896.912" y="523.126" fill="#7BBCCC" width="6.645" height="179.668"/>
				<rect x="918.892" y="523.126" fill="#7BBCCC" width="6.646" height="179.668"/>
				<rect x="940.871" y="523.126" fill="#7BBCCC" width="6.646" height="179.668"/>
			</g>
		</g>
		<rect x="555.124" y="510.431" fill="#7BBCCC" width="7.917" height="7.918"/>
		<rect x="537.029" y="510.431" fill="#7BBCCC" width="7.916" height="7.918"/>
		<polygon opacity="0.49" fill="#7BBCCC" points="574.785,529.729 962.168,529.729 962.168,522.944 567.61,522.944 567.61,703.978 
			574.785,703.978 		"/>
	</g>
	<g>
		<rect x="237.734" y="308.694" fill="#D14B4B" width="573.554" height="197.642"/>
		<rect x="398.871" y="308.694" fill="#D14B4B" width="412.195" height="197.642"/>
		<rect x="416.509" y="325.302" opacity="0.49" fill="#D14B4B" width="394.558" height="181.034"/>
		<g>
			<rect x="237.734" y="308.694" fill="#D14B4B" width="153.859" height="197.642"/>
			<g>
				<polygon fill="#D14B4B" points="263.678,319.489 256.201,319.489 247.9,319.489 247.9,324.472 247.9,494.711 256.201,494.711 
					256.201,324.472 263.678,324.472 				"/>
				<polygon fill="#D14B4B" points="286.939,319.489 279.295,319.489 271.154,319.489 270.986,319.489 270.986,494.711 
					279.295,494.711 279.295,324.472 286.939,324.472 				"/>
				<polygon fill="#D14B4B" points="310.193,319.489 302.385,319.489 294.412,319.489 294.08,319.489 294.08,494.711 
					302.385,494.711 302.385,323.641 310.193,323.641 				"/>
				<polygon fill="#D14B4B" points="332.619,319.489 325.474,319.489 317.17,319.489 316.838,319.489 316.838,323.641 
					317.17,323.641 317.17,494.711 325.474,494.711 325.474,323.641 332.619,323.641 				"/>
				<polygon fill="#D14B4B" points="355.876,319.489 348.568,319.489 340.259,319.489 340.096,319.489 340.096,323.641 
					340.259,323.641 340.259,494.711 348.568,494.711 348.568,323.641 355.876,323.641 				"/>
				<polygon fill="#D14B4B" points="379.13,319.489 371.658,319.489 363.349,319.489 363.349,323.641 363.349,494.711 
					371.658,494.711 371.658,323.641 379.13,323.641 				"/>
			</g>
			<g>
				<rect x="416.509" y="325.302" fill="#D14B4B" width="6.646" height="179.667"/>
				<rect x="438.488" y="325.302" fill="#D14B4B" width="6.646" height="179.667"/>
				<rect x="460.467" y="325.302" fill="#D14B4B" width="6.646" height="179.667"/>
				<rect x="482.446" y="325.302" fill="#D14B4B" width="6.641" height="179.667"/>
				<rect x="504.422" y="325.302" fill="#D14B4B" width="6.645" height="179.667"/>
				<rect x="526.4" y="325.302" fill="#D14B4B" width="6.645" height="179.667"/>
				<rect x="548.379" y="325.302" fill="#D14B4B" width="6.646" height="179.667"/>
				<rect x="570.359" y="325.302" fill="#D14B4B" width="6.645" height="179.667"/>
				<rect x="592.338" y="325.302" fill="#D14B4B" width="6.646" height="179.667"/>
				<rect x="614.317" y="325.302" fill="#D14B4B" width="6.646" height="179.667"/>
				<rect x="636.296" y="325.302" fill="#D14B4B" width="6.646" height="179.667"/>
				<rect x="658.274" y="325.302" fill="#D14B4B" width="6.646" height="179.667"/>
				<rect x="680.255" y="325.302" fill="#D14B4B" width="6.645" height="179.667"/>
				<rect x="702.233" y="325.302" fill="#D14B4B" width="6.646" height="179.667"/>
				<rect x="701.854" y="325.484" fill="#D14B4B" width="6.645" height="179.668"/>
				<rect x="723.832" y="325.484" fill="#D14B4B" width="6.646" height="179.668"/>
				<rect x="745.811" y="325.484" fill="#D14B4B" width="6.645" height="179.668"/>
				<rect x="767.79" y="325.484" fill="#D14B4B" width="6.646" height="179.668"/>
				<rect x="789.77" y="325.484" fill="#D14B4B" width="6.646" height="179.668"/>
			</g>
		</g>
		<rect x="404.022" y="312.789" fill="#D14B4B" width="7.917" height="7.917"/>
		<rect x="385.928" y="312.789" fill="#D14B4B" width="7.916" height="7.917"/>
		<polygon opacity="0.49" fill="#D14B4B" points="423.684,332.088 811.066,332.088 811.066,325.302 416.509,325.302 
			416.509,506.336 423.684,506.336 		"/>
	</g>
</g>
<line fill="none" stroke="#231F20" stroke-width="2" stroke-miterlimit="10" x1="526.917" y1="158.757" x2="389.886" y2="316.748"/>
<line fill="none" stroke="#231F20" stroke-width="2" stroke-miterlimit="10" x1="526.917" y1="158.757" x2="804.333" y2="319.489"/>
</svg>
